<svg width="104" height="35" viewBox="0 0 104 35" fill="none" xmlns="http://www.w3.org/2000/svg">
<path d="M93.3765 34.5336C90.8473 34.5336 88.7763 33.9838 87.1635 32.8841C85.5506 31.7478 84.3593 30.2999 83.5896 28.5405C82.8198 26.7444 82.4349 24.8933 82.4349 22.9872C82.3983 20.8245 82.8015 18.8634 83.6445 17.104C84.5243 15.3445 85.7705 13.9516 87.3834 12.9253C89.0329 11.8989 90.9939 11.3857 93.2666 11.3857C95.246 11.3857 97.0054 11.8256 98.545 12.7053C100.084 13.5484 101.312 14.758 102.229 16.3342C103.145 17.8737 103.64 19.7065 103.713 21.8325C103.75 21.9425 103.768 22.1624 103.768 22.4923C103.768 22.7856 103.768 23.0422 103.768 23.2621H86.7786C86.7786 25.608 87.3467 27.4408 88.4831 28.7604C89.656 30.0433 91.2689 30.6848 93.3216 30.6848C94.8611 30.6848 96.1624 30.2999 97.2254 29.5302C98.325 28.7237 99.0031 27.6607 99.2597 26.3411H103.713C103.493 27.8807 102.944 29.2736 102.064 30.5199C101.184 31.7661 100.011 32.7558 98.545 33.4889C97.0787 34.1854 95.3559 34.5336 93.3765 34.5336ZM86.9435 21.0078H99.1498C99.1131 20.6046 99.0031 20.0731 98.8199 19.4133C98.6732 18.7535 98.38 18.112 97.9401 17.4889C97.5003 16.8291 96.8955 16.2792 96.1257 15.8394C95.3559 15.3995 94.3662 15.1796 93.1566 15.1796C92.0569 15.1796 91.1222 15.3629 90.3525 15.7294C89.5827 16.096 88.9596 16.5908 88.4831 17.214C88.0065 17.8004 87.64 18.4419 87.3834 19.1384C87.1635 19.7982 87.0168 20.4213 86.9435 21.0078Z" fill="white"/>
<path d="M76.4629 33.9831V3.02759H80.9715V33.9831H76.4629Z" fill="white"/>
<path d="M65.3232 34.5331C63.9303 34.5331 62.739 34.3132 61.7493 33.8733C60.7596 33.3968 59.9531 32.847 59.33 32.2238C58.7069 31.6007 58.2487 31.0325 57.9554 30.5193C57.6622 29.9695 57.4789 29.6213 57.4056 29.4747H57.2956L56.5809 33.9833H52.6221V8.06934H57.3506V16.7736H57.4606C57.4972 16.627 57.6439 16.2787 57.9004 15.7289C58.1937 15.1791 58.6336 14.5743 59.22 13.9145C59.8065 13.2547 60.5946 12.6865 61.5843 12.21C62.6107 11.7335 63.8569 11.4952 65.3232 11.4952C67.5225 11.4952 69.3186 11.99 70.7115 12.9797C72.1044 13.9328 73.1491 15.289 73.8455 17.0485C74.542 18.7713 74.8902 20.7873 74.8902 23.0966C74.8902 25.3326 74.542 27.312 73.8455 29.0348C73.1857 30.7576 72.1411 32.1139 70.7115 33.1035C69.3186 34.0566 67.5225 34.5331 65.3232 34.5331ZM64.0036 30.5743C65.6164 30.5743 66.881 30.2261 67.7974 29.5297C68.7504 28.7965 69.4102 27.8618 69.7768 26.7255C70.18 25.5525 70.3816 24.3246 70.3816 23.0416C70.3816 21.7587 70.1617 20.5491 69.7218 19.4128C69.3186 18.2764 68.6221 17.3601 67.6325 16.6636C66.6794 15.9672 65.3965 15.6189 63.7836 15.6189C62.3907 15.6189 61.2178 15.9305 60.2647 16.5536C59.3117 17.1401 58.5969 18.0015 58.1204 19.1378C57.6439 20.2742 57.4056 21.5754 57.4056 23.0416C57.4056 24.5445 57.6439 25.8641 58.1204 27.0004C58.6336 28.1367 59.385 29.0165 60.3747 29.6396C61.3644 30.2628 62.574 30.5743 64.0036 30.5743Z" fill="white"/>
<path d="M40.936 34.5342C39.9097 34.5342 38.9016 34.3876 37.912 34.0943C36.9589 33.8377 36.0609 33.4529 35.2178 32.9397C34.4114 32.4265 33.6783 31.84 33.0185 31.1802C32.3953 30.5204 31.9005 29.8056 31.5339 29.0359C31.204 28.2295 31.0391 27.3864 31.0391 26.5067H35.3277C35.3277 26.5433 35.3461 26.7999 35.3827 27.2764C35.456 27.7529 35.6576 28.3028 35.9875 28.9259C36.3174 29.5124 36.8489 30.0256 37.582 30.4654C38.3518 30.9053 39.4331 31.1252 40.8261 31.1252C41.8891 31.1252 42.7871 30.9969 43.5202 30.7404C44.29 30.4838 44.8765 30.1355 45.2797 29.6957C45.6829 29.2192 45.8662 28.651 45.8295 27.9912C45.8295 27.0748 45.4813 26.36 44.7848 25.8469C44.0884 25.3337 43.1903 24.9305 42.0907 24.6372C40.991 24.3073 39.8364 23.9958 38.6267 23.7025C37.4171 23.4093 36.2625 23.0244 35.1628 22.5479C34.0631 22.0347 33.1651 21.3566 32.4686 20.5135C31.8088 19.6338 31.4973 18.4608 31.5339 16.9946C31.5339 15.0152 32.3587 13.494 34.0082 12.431C35.6943 11.3313 37.8203 10.7815 40.3862 10.7815C41.6325 10.7815 42.8421 10.9281 44.0151 11.2214C45.188 11.5146 46.2327 11.9728 47.1491 12.5959C48.1021 13.2191 48.8536 14.0438 49.4034 15.0702C49.9899 16.0965 50.2648 17.3611 50.2282 18.864H45.9945C46.0311 17.911 45.8662 17.1412 45.4996 16.5547C45.1697 15.9682 44.7115 15.5284 44.125 15.2351C43.5386 14.9052 42.9154 14.6853 42.2556 14.5753C41.6325 14.4287 41.0277 14.3554 40.4412 14.3554C38.975 14.3554 37.8203 14.6303 36.9772 15.1801C36.1342 15.6933 35.7126 16.3898 35.7126 17.2695C35.7126 18.1859 36.0609 18.9007 36.7573 19.4138C37.4538 19.927 38.3518 20.3302 39.4515 20.6235C40.5511 20.9167 41.7241 21.21 42.9704 21.5032C44.2167 21.7964 45.3896 22.1997 46.4893 22.7128C47.589 23.1893 48.487 23.8675 49.1835 24.7472C49.8799 25.6269 50.2282 26.7999 50.2282 28.2661C50.2282 29.6957 49.825 30.8686 49.0185 31.785C48.2488 32.7014 47.1674 33.3979 45.7745 33.8744C44.3816 34.3143 42.7688 34.5342 40.936 34.5342Z" fill="white"/>
<path d="M24.9014 33.9839V11.4958H29.465V33.9839H24.9014Z" fill="white"/>
<path d="M19.0907 11.4958H23.5993V12.3206L15.5168 33.9839H9.08379L0.946289 12.3756V11.4958H5.39992L12.3278 28.7288H12.4378L19.0907 11.4958Z" fill="white"/>
<circle cx="54.8388" cy="3.02797" r="2.69423" fill="#6B52D1"/>
<path d="M7.8109 6.32482L12.3763 2.88018L16.833 6.21611" stroke="#6B52D1" stroke-width="3.36093"/>
</svg>
